<svg width="100vw" height="100vh" xmlns="http://www.w3.org/2000/svg">
  <line x1="10%" y1="0" x2="10%" y2="30%" stroke="#9A80B5" stroke-width="2"/>
  <line x1="90%" y1="0" x2="90%" y2="30%" stroke="#9A80B5" stroke-width="2"/>

  <line x1="10%" y1="30%" x2="20%" y2="30%" stroke="#9A80B5" stroke-width="2"/>
  <line x1="90%" y1="30%" x2="80%" y2="30%" stroke="#9A80B5" stroke-width="2"/>

  <line x1="20%" y1="30%" x2="20%" y2="45%" stroke="#9A80B5" stroke-width="2"/>
  <line x1="20%" y1="30%" x2="20%" y2="45%" stroke="#9A80B5" stroke-width="2"/>

  <line x1="80%" y1="30%" x2="80%" y2="45%" stroke="#9A80B5" stroke-width="2"/>

  <line x1="20%" y1="45%" x2="80%" y2="45%" stroke="#9A80B5" stroke-width="2"/>

    <line x1="10%" y1="100%" x2="10%" y2="70%" stroke="#9A80B5" stroke-width="2"/>
  <line x1="90%" y1="100%" x2="90%" y2="70%" stroke="#9A80B5" stroke-width="2"/>

  <line x1="10%" y1="70%" x2="20%" y2="70%" stroke="#9A80B5" stroke-width="2"/>
  <line x1="90%" y1="70%" x2="80%" y2="70%" stroke="#9A80B5" stroke-width="2"/>

  <line x1="20%" y1="70%" x2="20%" y2="55%" stroke="#9A80B5" stroke-width="2"/>
  <line x1="20%" y1="70%" x2="20%" y2="55%" stroke="#9A80B5" stroke-width="2"/>

  <line x1="80%" y1="70%" x2="80%" y2="55%" stroke="#9A80B5" stroke-width="2"/>

  <line x1="20%" y1="55%" x2="80%" y2="55%" stroke="#9A80B5" stroke-width="2"/>
</svg>